<svg width="25" height="25" viewBox="0 0 25 25" fill="none" xmlns="http://www.w3.org/2000/svg">
<path d="M22.9167 12.5H2.08337" stroke="white" stroke-width="2" stroke-linecap="round" stroke-linejoin="round"/>
<path d="M5.67712 5.32324L2.08337 12.5003V18.7503C2.08337 19.3029 2.30287 19.8328 2.69357 20.2235C3.08427 20.6142 3.61417 20.8337 4.16671 20.8337H20.8334C21.3859 20.8337 21.9158 20.6142 22.3065 20.2235C22.6972 19.8328 22.9167 19.3029 22.9167 18.7503V12.5003L19.323 5.32324C19.1505 4.97615 18.8846 4.68405 18.5552 4.47978C18.2258 4.27552 17.846 4.1672 17.4584 4.16699H7.54171C7.15412 4.1672 6.77427 4.27552 6.44488 4.47978C6.11548 4.68405 5.8496 4.97615 5.67712 5.32324V5.32324Z" stroke="white" stroke-width="2" stroke-linecap="round" stroke-linejoin="round"/>
<path d="M6.25 16.667H6.26065" stroke="white" stroke-width="2" stroke-linecap="round" stroke-linejoin="round"/>
<path d="M10.4166 16.667H10.4273" stroke="white" stroke-width="2" stroke-linecap="round" stroke-linejoin="round"/>
</svg>
