<svg width="48" height="48" fill="none" xmlns="http://www.w3.org/2000/svg">
  <g clip-path="url(#a)">
    <path d="M48 24c0 13.255-10.745 24-24 24S0 37.255 0 24 10.745 0 24 0s24 10.745 24 24Z" fill="#3650A2"/>
    <path fill-rule="evenodd" clip-rule="evenodd" d="M24 9a1.8 1.8 0 0 1 1.62 1.015L32.983 25.2h-4.001l-1.164-2.4H20.18l-1.163 2.4h-4.002l7.365-15.185A1.8 1.8 0 0 1 24 9Zm-2.365 10.8h4.729L24 14.925 21.635 19.8Zm7.762 10.5H33c-.108 4.846-4.12 8.7-9 8.7S15.11 35.146 15 30.3h3.602c.084 2.206 1.55 4.09 3.596 4.799V27.9a1.8 1.8 0 0 1 3.6 0v7.2c2.048-.709 3.515-2.592 3.6-4.8Z" fill="#fff"/>
  </g>
  <defs>
    <clipPath id="a">
      <path fill="#fff" d="M0 0h48v48H0z"/>
    </clipPath>
  </defs>
</svg>
