<svg width="512" height="512" viewBox="0 0 512 512" fill="none" xmlns="http://www.w3.org/2000/svg">
<circle cx="256" cy="256" r="256" fill="#2E3BFF"/>
<path d="M315.164 217.103H266.829C264.932 217.103 263.11 217.861 261.768 219.209L150.461 331.009H78V223.338L121.097 180.002V300.027H127.255L239.725 187.058C244.225 182.538 250.326 180 256.688 180H315.164V217.105V217.103ZM434.368 180H361.905L250.6 291.798C249.258 293.146 247.436 293.903 245.539 293.903H197.204V331.007H255.629C262.024 331.007 268.157 328.457 272.677 323.914L385.111 210.984H391.269V312.394H321.83V331.009H391.269L397.666 324.577L403.631 318.579L434.368 287.673V180Z" fill="white"/>
</svg>
