<svg width="268" height="113" viewBox="0 0 268 113" fill="none" xmlns="http://www.w3.org/2000/svg">
<path d="M178.355 27.7642H142.005C140.579 27.7642 139.209 28.3314 138.199 29.3401L54.493 113H0V32.4298L32.4103 0.00149578V89.8162H37.0413L121.622 5.2815C125.006 1.89918 129.595 0 134.379 0H178.355V27.7657V27.7642ZM268 0H213.506L129.801 83.6584C128.791 84.6671 127.421 85.2336 125.995 85.2336H89.6452V112.998H133.583C138.392 112.998 143.004 111.09 146.403 107.691L230.957 23.1853H235.588V99.0704H183.368V113H235.588L240.399 108.187L244.885 103.699L268 80.5717V0Z" fill="white"/>
</svg>
