<svg width="185" height="276" fill="none" xmlns="http://www.w3.org/2000/svg">
  <path fill-rule="evenodd" clip-rule="evenodd" d="M92.5 0a7.17 7.17 0 0 1 5.847 2.973l57.461 79.268a7.289 7.289 0 0 1 1.222 2.737l27.803 128.26c.649 2.995-.634 6.079-3.207 7.707l-85.264 53.947A7.139 7.139 0 0 1 92.5 276a7.139 7.139 0 0 1-3.862-1.108L3.374 220.945C.8 219.317-.482 216.233.167 213.238L27.97 84.978c.214-.988.63-1.92 1.222-2.737L86.653 2.973A7.17 7.17 0 0 1 92.5 0Zm-7.235 29.48L42.957 87.843l9.79 31.044 32.518-57.942V29.48ZM92.5 77.513l-33.804 60.236 22.006 69.78h23.596l22.006-69.78L92.5 77.513Zm43.469 77.457-16.575 52.559h46.071l-29.496-52.559Zm16.815 67.083h-37.97l-9.465 30.013 47.435-30.013ZM92.5 244.941l7.218-22.888H85.282l7.218 22.888Zm-26.894-37.412L49.03 154.97l-29.496 52.559h46.07ZM24.39 169.415l18.692-33.306-6.799-21.558-11.893 54.864Zm7.825 52.638h37.97l9.465 30.013-47.435-30.013Zm128.393-52.638-18.692-33.306 6.799-21.558 11.893 54.864Zm-18.566-81.572-9.79 31.044-32.518-57.942V29.48l42.308 58.363Z" fill="#fff"/>
</svg>
