<svg width="500" height="500" viewBox="0 0 500 500" fill="none" xmlns="http://www.w3.org/2000/svg">
<path d="M123.403 225.273V322.743L81.2012 347.077V200.906L123.403 225.273Z" fill="#FFA534"/>
<path d="M461 127.82V371.445L418.798 395.812L418.782 200.906L376.597 225.257V420.18L249.992 493.249V249.641L292.194 225.273V420.18L334.395 395.812V200.906L461 127.82Z" fill="#FFA534"/>
<path d="M165.605 103.437L123.404 127.804L165.605 152.171V103.437Z" fill="#FFA534"/>
<path d="M249.991 54.7183L207.79 79.0857L249.991 103.437V54.7183Z" fill="#FFA534"/>
<path d="M461 127.82L418.798 152.171L249.992 54.7183L207.79 79.0857V79.1022L249.992 103.437L376.596 176.539L334.411 200.906H334.395V200.89L165.605 103.437L123.403 127.804L292.193 225.273L249.992 249.641L39 127.804L249.975 6H249.992L461 127.82Z" fill="white"/>
<path d="M207.789 371.445V420.18L81.2012 347.078L123.403 322.743L207.789 371.445Z" fill="white"/>
<path d="M292.193 420.18L334.395 395.812L292.193 371.445V420.18Z" fill="white"/>
<path d="M39 127.804V371.445L249.991 493.249V249.608L39 127.804ZM207.79 420.179L81.1851 347.077V200.906L207.79 274.008V420.179Z" fill="#FF6C2D"/>
<path d="M418.797 395.812L376.596 371.445V225.257L418.781 200.906L418.797 395.812Z" fill="#FF6C2D"/>
<path d="M418.798 152.171L376.597 176.539L249.992 103.437V54.7183L418.798 152.171Z" fill="#FF6C2D"/>
<path d="M165.605 103.437V152.171L292.193 225.274V371.445L334.395 395.812V200.906L165.605 103.437Z" fill="#FF6C2D"/>
</svg>
