<svg width="216" height="317" viewBox="0 0 216 317" fill="none" xmlns="http://www.w3.org/2000/svg">
<g clip-path="url(#clip0_10623_21593)">
<path d="M80.1998 218.687C72.7712 217.964 65.446 218.227 58.6826 219.372C65.6826 221.911 74.183 224.803 83.1344 228.305L80.1998 218.687Z" fill="#006838"/>
<path d="M74.072 198.607C66.0521 198.035 58.1503 198.562 50.9139 200.038L50.84 200.174C58.3277 202.509 67.4565 205.122 77.0583 208.383L74.072 198.607Z" fill="#006838"/>
<path d="M68.0775 178.964C66.3478 178.866 64.6108 178.806 62.8959 178.806L58.9857 185.728C62.9181 186.759 67.0131 187.882 71.1746 189.109L68.0775 178.964Z" fill="#006838"/>
<path d="M113.825 248.272C107.704 244.837 101.148 242.382 94.5249 240.785L98.3316 253.258C101.562 254.87 104.799 256.557 107.993 258.372H127.965C123.633 254.478 118.895 251.051 113.825 248.272Z" fill="#006838"/>
<path d="M63.3025 163.298L62.2159 159.735C54.1738 159.313 46.1834 159.946 38.7547 161.445L38.1042 164.247C44.742 165.633 52.2445 167.162 60.065 169.037L63.3025 163.298Z" fill="#006838"/>
<path d="M53.7893 101.665C63.7237 103.427 73.2073 105.634 81.2642 107.366C83.5039 111.464 85.6992 115.599 87.865 119.764L89.6981 116.518C88.0128 113.512 86.3128 110.522 84.5831 107.562C85.034 93.9823 84.4353 76.4105 83.6444 58.5676L76.8883 68.3289C78.1671 82.8653 80.7986 96.4151 84.2653 106.997C81.5747 102.41 78.8028 97.8989 75.9866 93.44C76.0753 86.6689 75.8535 78.7981 75.4617 70.3851L71.1967 76.5461C72.542 82.7674 74.1608 88.4916 75.9792 93.4325C75.3065 92.363 74.6413 91.2784 73.9538 90.2164C72.4016 87.8213 70.8272 85.4487 69.2379 83.0837C69.1492 82.0293 69.0458 80.9146 68.9349 79.8074L68.1144 80.9899C68.3066 81.4041 68.4914 81.8485 68.691 82.2477C68.4544 81.8937 68.2105 81.5473 67.974 81.2008L66.5695 83.2269C66.8948 83.3172 67.2348 83.4152 67.5526 83.498C68.9053 85.7425 70.2358 88.0096 71.5589 90.2842C69.408 88.7628 67.0722 87.3618 64.596 86.0739L61.2919 90.8415C65.4977 91.6173 69.4967 92.3856 73.1629 93.0484C75.277 96.6712 77.354 100.332 79.3941 104.015C73.673 99.7743 66.7617 96.2419 59.2148 93.8317L53.7893 101.665Z" fill="#006838"/>
<path d="M57.1228 118.22C66.9538 120.186 76.4447 122.618 84.9821 124.87L87.4953 120.419C78.0487 113.49 66.1629 108.187 53.3752 105.905L57.1228 118.22Z" fill="#006838"/>
<path d="M73.237 143.519C70.3025 142.751 67.3088 142.163 64.3004 141.719L68.0702 154.079C68.1958 154.109 68.3215 154.147 68.4472 154.177L74.294 143.813C73.9318 143.73 73.5918 143.609 73.237 143.519Z" fill="#006838"/>
<path d="M54.4325 134.225L50.8918 122.611C49.857 122.535 48.8148 122.483 47.7799 122.445L45.4368 132.583C48.4082 133.08 51.4166 133.622 54.4325 134.225Z" fill="#006838"/>
<path d="M62.8516 124.283C61.4915 123.989 60.1167 123.741 58.7418 123.522L62.5338 135.965C67.3384 137.042 72.0912 138.247 76.711 139.527L81.73 130.632C75.8314 127.815 69.4745 125.624 62.8516 124.283Z" fill="#006838"/>
<path d="M59.88 152.09L56.4724 140.928C52.1113 140.68 47.7502 140.74 43.4557 141.079L41.7334 148.52C47.5581 149.537 53.6858 150.697 59.88 152.09Z" fill="#006838"/>
<path d="M41.7631 181.306C44.8306 182.112 48.1717 182.948 51.6975 183.845L54.3142 179.205C49.9826 179.612 45.762 180.32 41.7631 181.306Z" fill="#006838"/>
<path d="M64.803 72.976L67.6783 68.8259C66.577 60.3752 65.143 51.1111 63.6573 41.7866C61.1441 26.6928 58.6014 11.5237 55.179 0C54.4472 13.5498 54.9868 29.5323 57.4778 44.5132C59.1409 54.8243 61.7206 64.6081 64.803 72.976Z" fill="#006838"/>
<path d="M120.226 265.738C123.537 267.885 126.76 270.077 129.872 272.276L131.868 265.738H120.226Z" fill="#006838"/>
<path d="M83.0383 46.6446C82.2252 31.7542 81.1977 17.3307 79.5642 5.98022C76.7849 20.8782 75.4766 39.0601 76.1566 56.5866L83.0383 46.6446Z" fill="#006838"/>
<path d="M106.551 12.6911C106.381 10.3864 106.196 8.13433 105.989 5.98022C105.199 9.41474 104.467 12.9999 103.787 16.6754L106.551 12.6911Z" fill="#006838"/>
<path d="M94.1037 30.6697C93.4902 21.0515 92.6993 12.0434 91.6571 4.23291C89.5209 15.2068 88.013 27.672 87.259 40.559L94.1037 30.6697Z" fill="#006838"/>
<path d="M69.3193 66.4458L74.8262 58.4922C74.6044 54.7187 74.3679 50.8926 74.1239 47.0513C72.9708 30.2026 71.6773 13.1656 69.482 0.338867C67.124 14.7849 66.2296 32.4396 67.3975 49.1753C67.804 55.0953 68.4545 60.9024 69.3193 66.4458Z" fill="#006838"/>
<path d="M44.4315 104.73C29.0124 103.48 13.0981 106.259 0 111.577C11.4793 112.45 26.5879 113.294 41.9257 115.569L44.4315 104.73Z" fill="#006838"/>
<path d="M143.007 229.224L157.384 182.105C158.47 174.452 159.461 166.913 160.318 159.69L156.194 152.384C152.217 166.536 148.876 182.09 146.54 197.462C144.87 208.308 143.709 219.033 143.007 229.224Z" fill="#006838"/>
<path d="M24.8657 27.8227C25.6493 28.975 26.4476 30.1651 27.2754 31.3777C28.9164 33.7954 30.6534 36.3035 32.4644 38.8493C36.0863 43.9559 40.0187 49.2583 44.0472 54.4477C50.2118 62.3787 56.5761 70.0461 62.4968 76.2976L64.293 73.7066C60.3163 65.5798 54.9647 56.9784 48.8592 49.1152C44.7863 43.873 40.4105 38.9547 35.9681 34.7143C33.7432 32.5978 31.5035 30.6471 29.2712 28.9072C28.155 28.0335 27.0315 27.2276 25.9154 26.4669C25.3462 26.0903 24.7918 25.7288 24.2079 25.3823C23.6165 25.0359 23.0178 24.6442 22.3895 24.4785C22.8404 24.9003 23.2691 25.5254 23.6757 26.0903C24.0674 26.6627 24.4666 27.2427 24.8657 27.8227Z" fill="#006838"/>
<path d="M59.1409 81.148L61.6689 77.4951C55.0385 72.8555 46.952 69.2025 38.252 67.4853C25.8266 64.8868 12.3293 66.2199 1.604 70.3398C10.7106 71.3114 23.2912 72.6295 35.5984 75.2506C43.8253 76.9001 51.8971 79.122 59.1409 81.148Z" fill="#006838"/>
<path d="M53.3975 89.4406L57.8325 83.0385C52.5104 80.9974 46.7375 79.5437 40.7577 78.9186C27.0904 77.3294 12.5288 79.9731 0.975586 85.1098C11.0505 85.4562 24.7916 85.6746 38.3554 87.3091C43.463 87.8664 48.5115 88.6196 53.3975 89.4406Z" fill="#006838"/>
<path d="M109.331 96.513C109.796 121.752 111.681 150.388 115.643 170.227C114.046 166.348 112.42 162.492 110.742 158.681C109.138 155.081 107.49 151.51 105.82 147.963C107.12 133.961 107.756 116.841 108.044 98.7801L99.8101 113.377C101.03 125.654 102.892 137.034 105.273 146.803C102.212 140.333 99.0413 133.961 95.7446 127.702C95.8407 127.725 95.9442 127.755 96.0403 127.778C95.8703 127.604 95.6855 127.431 95.5081 127.258C95.4933 127.235 95.4785 127.205 95.4638 127.175C95.5894 125.021 95.7003 122.792 95.789 120.487L94.0002 123.658C94.1259 124.14 94.2441 124.629 94.3698 125.096C94.1776 124.735 93.9854 124.373 93.8006 124.012L91.8271 127.507C94.1037 132.071 96.3508 136.665 98.5461 141.297C95.3751 138.669 91.864 136.243 88.1312 134.044L83.881 141.576C90.0087 143.391 95.8481 145.244 101.163 146.916C103.351 151.654 105.494 156.421 107.549 161.264C107.66 161.513 107.764 161.769 107.867 162.025C100.542 155.367 91.4205 149.756 81.353 146.05L75.6688 156.128C88.2051 159.705 100.224 164.187 110.358 167.937C112.494 173.059 114.556 178.241 116.552 183.476C107.682 174.573 95.9073 167.214 82.8979 163.343C79.6455 162.326 76.3119 161.535 72.9487 160.94L71.1229 164.179L73.7026 172.645C75.2844 173.112 76.8737 173.586 78.4481 174.091C93.0762 178.497 107.231 184.62 118.858 189.622C119.945 192.574 121.009 195.534 122.052 198.517C122.887 200.889 123.693 203.277 124.506 205.664C116.042 196.212 104.607 188.228 91.8492 183.739C86.6677 181.849 81.2865 180.538 75.861 179.747L79.5199 191.738C82.0478 192.574 84.5758 193.448 87.0964 194.382C95.2272 197.297 103.232 200.716 110.676 204.203C116.323 206.862 121.689 209.521 126.583 211.946C128.379 217.474 130.109 223.055 131.735 228.704C123.707 218.597 112.598 209.86 100.024 204.708C94.1924 202.245 88.0647 200.558 81.9 199.541L85.5293 211.434C88.6708 212.616 91.8271 213.867 94.9611 215.215C102.892 218.529 110.668 222.355 117.905 226.241C123.441 229.239 128.697 232.229 133.487 234.963C133.716 235.807 133.967 236.643 134.189 237.486C135.194 241.169 136.14 244.89 137.064 248.626L139.141 241.81C138.609 239.648 138.092 237.494 137.537 235.347C137.53 235.325 137.522 235.302 137.522 235.287C141.218 218.265 144.456 196.197 147.206 173.895C148.47 163.313 149.652 152.701 150.621 142.555L145.712 133.848C142.66 146.781 140.183 160.669 138.557 174.377C136.074 194.721 135.438 214.65 136.377 231.069C134.647 224.697 132.799 218.401 130.84 212.179C133.923 195.188 136.414 173.232 138.439 151.074C139.23 142.216 139.954 133.321 140.553 124.72L134.987 114.861C132.629 126.829 130.811 139.49 129.717 151.97C127.891 172.17 127.95 191.881 129.517 208.037C128.216 204 126.886 199.985 125.511 196.009C124.764 193.915 123.988 191.836 123.227 189.757C125.748 172.803 127.492 150.998 128.859 128.968C129.31 121.293 129.709 113.603 130.035 106.094L123.937 95.2853C122.081 106.636 120.758 118.536 120.085 130.248C118.888 150.358 119.598 169.926 121.778 185.841C120.211 181.698 118.592 177.593 116.944 173.519C118.644 151.639 119.893 117.278 119.686 89.0565C119.679 88.6121 119.672 88.1677 119.672 87.7158L116.974 82.9331L109.331 96.513Z" fill="#006838"/>
<path d="M85.81 247.391C87.0075 247.918 88.2419 248.483 89.4615 249.04L86.4753 239.256C79.4384 238.292 72.468 238.27 65.9929 239.083C71.7732 241.516 78.5662 244.227 85.81 247.391Z" fill="#006838"/>
<path d="M107.386 226.211C101.237 223.214 94.7097 221.127 88.1311 219.847L91.7974 231.853C95.1976 233.314 98.6199 234.873 102.005 236.552C109.707 240.273 117.247 244.529 124.232 248.837C127.972 251.149 131.55 253.454 134.943 255.668L136.562 250.373C129.125 240.416 118.977 231.694 107.386 226.211Z" fill="#006838"/>
<path d="M113.189 74.8741V27.2502C110.765 44.2797 109.382 63.1319 109.227 81.8937L113.189 74.8741Z" fill="#006838"/>
<path d="M38.2445 131.468L40.329 122.46C30.1137 122.882 20.1201 124.885 11.324 128.056C19.0187 129.028 28.347 130.03 38.2445 131.468Z" fill="#006838"/>
<path d="M22.0938 145.236C25.9005 145.892 30.1064 146.562 34.5857 147.3L35.8127 141.998C31.0377 142.759 26.4253 143.843 22.0938 145.236Z" fill="#006838"/>
<path d="M3.71802 96.6937C14.6355 97.4017 29.4707 97.9741 44.084 100.136C44.6606 100.211 45.2371 100.309 45.8137 100.392L51.7271 91.8582C50.1231 91.5268 48.4969 91.2482 46.8559 91.0297C32.1169 88.9208 16.3282 91.444 3.71802 96.6937Z" fill="#006838"/>
<path d="M86.8449 69.0141C87.3032 84.7331 89.0181 99.9399 91.62 113.113L96.1511 105.084C96.2546 93.0407 96.0402 79.8976 95.6928 66.6793C95.4489 58.56 95.1532 50.4105 94.7762 42.5021L86.7562 54.0785C86.6602 59.0721 86.6823 64.0657 86.8449 69.0141Z" fill="#006838"/>
<path d="M98.1987 79.9203C98.1913 86.8571 98.3982 93.7111 98.79 100.399L108.214 83.7013C108.229 81.6903 108.237 79.6718 108.244 77.6532C108.251 59.2379 108.044 40.6945 107.261 24.4709L101.2 33.2229C99.2483 48.2339 98.1839 64.2767 98.1987 79.9203Z" fill="#006838"/>
<path d="M94.5545 265.738H25.8488C27.7189 267.011 29.9142 268.503 32.383 270.182L110.195 316.992L94.5545 265.738Z" fill="#60C3AD"/>
<path d="M184.911 116.736L170.704 163.298L213.051 238.345L184.911 116.736Z" fill="#60C3AD"/>
<path d="M120.81 74.8741L165.788 154.576L181.407 103.382L120.81 15.8998V74.8741Z" fill="#60C3AD"/>
<path d="M139.444 265.738L123.811 317L209.008 265.738H139.444Z" fill="#60C3AD"/>
<path d="M167.777 172.901L141.699 258.365H216L167.777 172.901Z" fill="#60C3AD"/>
</g>
<defs>
<clipPath id="clip0_10623_21593">
<rect width="216" height="317" fill="white"/>
</clipPath>
</defs>
</svg>
